<?xml version="1.0" encoding="UTF-8" standalone="no"?>
<svg
   xmlns:dc="http://purl.org/dc/elements/1.1/"
   xmlns:cc="http://creativecommons.org/ns#"
   xmlns:rdf="http://www.w3.org/1999/02/22-rdf-syntax-ns#"
   xmlns:svg="http://www.w3.org/2000/svg"
   xmlns="http://www.w3.org/2000/svg"
   version="1.1"
   id="svg2"
   viewBox="0 0 92.195836 46.23423"
   height="13.048328mm"
   width="26.019714mm">
  <defs
     id="defs4" />
  <metadata
     id="metadata7">
    <rdf:RDF>
      <cc:Work
         rdf:about="">
        <dc:format>image/svg+xml</dc:format>
        <dc:type
           rdf:resource="http://purl.org/dc/dcmitype/StillImage" />
        <dc:title></dc:title>
      </cc:Work>
    </rdf:RDF>
  </metadata>
  <flowRoot
     xml:space="preserve"
     id="flowRoot4658"
     style="font-style:normal;font-weight:normal;font-size:7.5px;line-height:125%;font-family:Sans;letter-spacing:0px;word-spacing:0px;fill:#000000;fill-opacity:1;stroke:none;stroke-width:1px;stroke-linecap:butt;stroke-linejoin:miter;stroke-opacity:1"
     transform="translate(2.5260816,-46.255523)"><flowRegion
       id="flowRegion4660"><rect
         id="rect4662"
         width="54.464287"
         height="51.07143"
         x="41.964287"
         y="-16.321836" /></flowRegion><flowPara
       id="flowPara4664" /></flowRoot>  <g
     id="g10980"
     style="font-style:normal;font-variant:normal;font-weight:normal;font-stretch:normal;font-size:47.92103958px;line-height:125%;font-family:Arial;-inkscape-font-specification:Arial;letter-spacing:-0.27554595px;word-spacing:0px;opacity:1;fill:#808080;fill-opacity:1;stroke:#808080;stroke-width:0.75;stroke-linecap:butt;stroke-linejoin:miter;stroke-opacity:1"
     transform="matrix(0.39712634,0,0,0.39712634,-24.783308,-27.363452)">
    <path
       id="path10982"
       style="font-style:normal;font-variant:normal;font-weight:normal;font-stretch:normal;font-family:Arial;-inkscape-font-specification:Arial;letter-spacing:-2.66939855px;fill:#808080;fill-opacity:1;stroke:#808080;stroke-width:0.75"
       d="m 63.673846,148.50488 0,-4.21181 17.572608,-21.97161 q 1.871915,-2.33989 3.556639,-4.07141 l -19.140337,0 0,-4.04802 24.568892,0 0,4.04802 -19.257331,23.79672 -2.082507,2.4101 21.901413,0 0,4.04801 -27.119377,0 z" />
    <path
       id="path10984"
       style="font-style:normal;font-variant:normal;font-weight:normal;font-stretch:normal;font-family:Arial;-inkscape-font-specification:Arial;letter-spacing:-2.66939855px;fill:#808080;fill-opacity:1;stroke:#808080;stroke-width:0.75"
       d="m 109.08928,135.05049 0,-4.02462 14.53074,-0.0234 0,12.72903 q -3.34605,2.66748 -6.90269,4.02462 -3.55664,1.33374 -7.30047,1.33374 -5.05417,0 -9.19578,-2.15271 -4.118216,-2.1761 -6.224121,-6.27091 -2.105905,-4.09482 -2.105905,-9.14899 0,-5.00738 2.082506,-9.33618 2.105905,-4.3522 6.03693,-6.45811 3.93102,-2.1059 9.05539,-2.1059 3.72043,0 6.7155,1.21674 3.01846,1.19335 4.72658,3.34605 1.70813,2.1527 2.59729,5.61575 l -4.09482,1.12315 q -0.77216,-2.62069 -1.91871,-4.11822 -1.14655,-1.49753 -3.27585,-2.38669 -2.12931,-0.91256 -4.72659,-0.91256 -3.11206,0 -5.38176,0.95936 -2.2697,0.93596 -3.67363,2.48029 -1.380541,1.54433 -2.152706,3.39284 -1.310341,3.18226 -1.310341,6.90269 0,4.58619 1.567729,7.67486 1.591128,3.08866 4.609588,4.58619 3.01847,1.49753 6.41132,1.49753 2.94826,0 5.75614,-1.12315 2.80787,-1.14655 4.2586,-2.43349 l 0,-6.38791 -10.08494,0 z" />
    <path
       id="path10986"
       style="font-style:normal;font-variant:normal;font-weight:normal;font-stretch:normal;font-family:Arial;-inkscape-font-specification:Arial;letter-spacing:-2.66939855px;fill:#808080;fill-opacity:1;stroke:#808080;stroke-width:0.75"
       d="m 126.07499,137.48398 4.28201,-0.37438 q 0.30419,2.57388 1.40394,4.23521 1.12315,1.63792 3.46304,2.66748 2.3399,1.00615 5.26476,1.00615 2.59729,0 4.5862,-0.77217 1.98891,-0.77216 2.94826,-2.1059 0.98276,-1.35714 0.98276,-2.94827 0,-1.61452 -0.93596,-2.80787 -0.93596,-1.21675 -3.08866,-2.03571 -1.38054,-0.53817 -6.10712,-1.66132 -4.72659,-1.14655 -6.6219,-2.15271 -2.45689,-1.28694 -3.67364,-3.18225 -1.19335,-1.91872 -1.19335,-4.28201 0,-2.59728 1.47414,-4.84358 1.47413,-2.2697 4.3054,-3.43965 2.83128,-1.16994 6.29432,-1.16994 3.81403,0 6.7155,1.24014 2.92487,1.21674 4.4926,3.60344 1.56772,2.38669 1.68472,5.40515 l -4.3522,0.32759 q -0.35099,-3.25245 -2.3867,-4.91378 -2.01231,-1.66132 -5.96673,-1.66132 -4.11821,0 -6.01353,1.52093 -1.87191,1.49753 -1.87191,3.62683 0,1.84852 1.33374,3.04187 1.31034,1.19334 6.83249,2.45689 5.54555,1.24014 7.60466,2.1761 2.99506,1.38053 4.4224,3.50984 1.42733,2.1059 1.42733,4.86698 0,2.73768 -1.56773,5.17117 -1.56773,2.41009 -4.51599,3.76723 -2.92487,1.33374 -6.59851,1.33374 -4.65639,0 -7.81524,-1.35714 -3.13546,-1.35714 -4.93718,-4.07142 -1.77832,-2.73768 -1.87192,-6.17732 z" />
    <path
       id="path10988"
       style="font-style:normal;font-variant:normal;font-weight:normal;font-stretch:normal;font-family:Arial;-inkscape-font-specification:Arial;letter-spacing:-2.66939855px;fill:#808080;fill-opacity:1;stroke:#808080;stroke-width:0.75"
       d="m 156.81929,148.50488 0,-34.30285 6.83249,0 8.11944,24.2881 q 1.12315,3.39285 1.63793,5.07758 0.58497,-1.87192 1.82511,-5.49876 l 8.21303,-23.86692 6.10713,0 0,34.30285 -4.37561,0 0,-28.7105 -9.96795,28.7105 -4.09481,0 -9.92115,-29.20188 0,29.20188 -4.37561,0 z" />
  </g>
  <g
     style="font-style:normal;font-weight:normal;font-size:30.69500732px;line-height:125%;font-family:Sans;letter-spacing:0px;word-spacing:0px;fill:#1a1a1a;fill-opacity:1;stroke:none;stroke-width:1px;stroke-linecap:butt;stroke-linejoin:miter;stroke-opacity:1"
     id="g10990"
     transform="matrix(0.39712634,0,0,0.39712634,-27.591416,-205.47767)">
    <path
       d="m 74.95649,610.98395 0,9.09759 q 0,0.94423 0.149878,1.73859 0.149878,0.77936 0.494597,1.3489 0.344719,0.55455 0.88428,0.86929 0.554549,0.31474 1.348902,0.31474 0.764377,0 1.378877,-0.32973 0.629487,-0.34472 1.079121,-0.95922 0.449634,-0.62948 0.689439,-1.48379 0.254793,-0.86929 0.254793,-1.90345 l 0,-8.69292 4.21157,0 0,12.58975 q 0,0.50958 0,1.07912 0.01499,0.55455 0.02998,1.06413 0.02998,0.4946 0.04496,0.89927 0.02998,0.38968 0.04496,0.58452 l -4.01673,0 q -0.01499,-0.17985 -0.05995,-0.56953 -0.02997,-0.40467 -0.05995,-0.88428 -0.01499,-0.47961 -0.04496,-0.95922 -0.01499,-0.47961 -0.01499,-0.80934 l -0.07494,0 q -0.839317,1.8435 -2.143255,2.68281 -1.288951,0.83932 -3.072498,0.83932 -1.453817,0 -2.472987,-0.47961 -1.01917,-0.47961 -1.663645,-1.30394 -0.629488,-0.83931 -0.914256,-1.97839 -0.284768,-1.13907 -0.284768,-2.458 l 0,-10.29661 4.211571,0 z"
       style="font-style:normal;font-variant:normal;font-weight:bold;font-stretch:normal;font-family:'Liberation Sans';-inkscape-font-specification:'Liberation Sans Bold';fill:#1a1a1a"
       id="path10992" />
    <path
       d="m 88.62536,627.20074 0,-2.98257 8.09341,-10.1917 -7.47891,0 0,-3.04252 12.12513,0 0,3.01255 -8.04845,10.13175 8.78285,0 0,3.07249 -13.47403,0 z"
       style="font-style:normal;font-variant:normal;font-weight:bold;font-stretch:normal;font-family:'Liberation Sans';-inkscape-font-specification:'Liberation Sans Bold';fill:#1a1a1a"
       id="path10994" />
    <path
       d="m 109.24857,614.22131 q 0.8543,-1.85848 2.14325,-2.6978 1.28895,-0.83932 3.0725,-0.83932 1.46881,0 2.47299,0.47961 1.01917,0.47961 1.64866,1.31893 0.64447,0.83932 0.92924,1.97839 0.28477,1.13907 0.28477,2.458 l 0,10.28162 -4.19659,0 0,-9.0826 q 0,-0.94423 -0.14987,-1.7236 -0.14988,-0.79435 -0.4946,-1.3489 -0.34472,-0.56953 -0.89927,-0.88428 -0.55455,-0.31474 -1.3489,-0.31474 -0.76438,0 -1.39387,0.34472 -0.6145,0.32973 -1.06413,0.95922 -0.44963,0.6145 -0.70443,1.48379 -0.2398,0.8543 -0.2398,1.88846 l 0,8.67793 -4.21157,0 0,-22.24189 4.21157,0 0,6.07006 q 0,0.47961 -0.015,0.97421 -0.015,0.47961 -0.045,0.91425 -0.015,0.41966 -0.03,0.76438 -0.015,0.34472 -0.03,0.53956 l 0.06,0 z"
       style="font-style:normal;font-variant:normal;font-weight:bold;font-stretch:normal;font-family:'Liberation Sans';-inkscape-font-specification:'Liberation Sans Bold';fill:#1a1a1a"
       id="path10996" />
    <path
       d="m 132.00004,632.94107 -2.30812,0 0,-26.88811 2.30812,0 0,26.88811 z"
       style="font-style:normal;font-variant:normal;font-weight:normal;font-stretch:normal;font-family:'Andale Mono';-inkscape-font-specification:'Andale Mono';fill:#1a1a1a"
       id="path10998" />
    <path
       d="m 148.90628,627.5005 q -1.75358,0 -3.16243,-0.50958 -1.39386,-0.52458 -2.38306,-1.57372 -0.98919,-1.06414 -1.51377,-2.65284 -0.52457,-1.6037 -0.52457,-3.74695 0,-2.32311 0.6145,-3.91182 0.62949,-1.5887 1.67863,-2.56291 1.06414,-0.98919 2.44302,-1.42384 1.37887,-0.43465 2.90763,-0.43465 1.91844,0 3.26734,0.67445 1.36389,0.65947 2.23318,1.85849 0.86929,1.19902 1.27396,2.87766 0.40467,1.66364 0.40467,3.687 l 0,0.1199 -10.40153,0 q 0,1.01917 0.17986,1.90345 0.17985,0.86929 0.58452,1.51377 0.40467,0.62948 1.04915,1.00418 0.64447,0.3597 1.55873,0.3597 1.10909,0 1.81352,-0.46462 0.70443,-0.47961 1.00418,-1.4688 l 3.97177,0.34472 q -0.26978,0.68944 -0.76438,1.4688 -0.47961,0.77937 -1.28895,1.43883 -0.80934,0.64448 -2.02335,1.07912 -1.19903,0.41966 -2.92262,0.41966 z m 0,-14.16347 q -0.64448,0 -1.21401,0.22482 -0.55455,0.20983 -0.97421,0.68944 -0.40467,0.46462 -0.65946,1.21401 -0.2548,0.74939 -0.28477,1.79854 l 6.29487,0 q -0.1199,-1.96341 -0.94423,-2.93761 -0.82433,-0.9892 -2.21819,-0.9892 z"
       style="font-style:normal;font-variant:normal;font-weight:bold;font-stretch:normal;font-family:'Liberation Sans';-inkscape-font-specification:'Liberation Sans Bold';fill:#1a1a1a"
       id="path11000" />
    <path
       d="m 163.50439,627.47052 q -1.85848,0 -2.86267,-1.00418 -1.00418,-1.01917 -1.00418,-3.0725 l 0,-9.56221 -2.05333,0 0,-2.84768 2.26316,0 1.31893,-3.8069 2.63785,0 0,3.8069 3.0725,0 0,2.84768 -3.0725,0 0,8.42314 q 0,1.18404 0.44963,1.75357 0.44964,0.55455 1.39387,0.55455 0.38968,0 0.70442,-0.06 0.31475,-0.0599 0.70443,-0.14988 l 0,2.60788 q -0.77936,0.25479 -1.64866,0.37469 -0.86929,0.13489 -1.90345,0.13489 z"
       style="font-style:normal;font-variant:normal;font-weight:bold;font-stretch:normal;font-family:'Liberation Sans';-inkscape-font-specification:'Liberation Sans Bold';fill:#1a1a1a"
       id="path11002" />
    <path
       d="m 173.75604,614.22131 q 0.85431,-1.85848 2.14326,-2.6978 1.28895,-0.83932 3.07249,-0.83932 1.46881,0 2.47299,0.47961 1.01917,0.47961 1.64866,1.31893 0.64447,0.83932 0.92924,1.97839 0.28477,1.13907 0.28477,2.458 l 0,10.28162 -4.19658,0 0,-9.0826 q 0,-0.94423 -0.14988,-1.7236 -0.14988,-0.79435 -0.4946,-1.3489 -0.34472,-0.56953 -0.89927,-0.88428 -0.55454,-0.31474 -1.3489,-0.31474 -0.76438,0 -1.39386,0.34472 -0.6145,0.32973 -1.06414,0.95922 -0.44963,0.6145 -0.70442,1.48379 -0.23981,0.8543 -0.23981,1.88846 l 0,8.67793 -4.21157,0 0,-22.24189 4.21157,0 0,6.07006 q 0,0.47961 -0.015,0.97421 -0.015,0.47961 -0.045,0.91425 -0.015,0.41966 -0.03,0.76438 -0.015,0.34472 -0.03,0.53956 l 0.06,0 z"
       style="font-style:normal;font-variant:normal;font-weight:bold;font-stretch:normal;font-family:'Liberation Sans';-inkscape-font-specification:'Liberation Sans Bold';fill:#1a1a1a"
       id="path11004" />
    <path
       d="m 196.50752,632.94107 -2.30812,0 0,-26.88811 2.30812,0 0,26.88811 z"
       style="font-style:normal;font-variant:normal;font-weight:normal;font-stretch:normal;font-family:'Andale Mono';-inkscape-font-specification:'Andale Mono';fill:#1a1a1a"
       id="path11006" />
    <path
       d="m 205.3653,627.20074 0,-2.05332 9.90693,-12.08017 -9.30742,0 0,-2.0833 12.34995,0 0,2.05333 -9.92193,12.08016 10.47647,0 0,2.0833 -13.504,0 z"
       style="font-style:normal;font-variant:normal;font-weight:normal;font-stretch:normal;font-family:'Liberation Sans';-inkscape-font-specification:'Liberation Sans';fill:#1a1a1a"
       id="path11008" />
    <path
       d="m 224.68457,610.98395 0,10.28163 q 0,1.18403 0.16487,1.97839 0.17985,0.79435 0.56953,1.28895 0.38968,0.47961 1.01917,0.68944 0.64448,0.19484 1.58871,0.19484 0.95922,0 1.72359,-0.32973 0.77937,-0.34472 1.31893,-0.97421 0.55455,-0.64448 0.85431,-1.57372 0.29975,-0.94423 0.29975,-2.15824 l 0,-9.39735 2.6978,0 0,12.75461 q 0,0.50959 0,1.07912 0.015,0.55455 0.03,1.06414 0.015,0.4946 0.03,0.8543 0.015,0.35971 0.03,0.46462 l -2.54792,0 q -0.015,-0.0749 -0.03,-0.40467 -0.015,-0.32973 -0.045,-0.74939 -0.015,-0.43464 -0.03,-0.86929 -0.015,-0.44963 -0.015,-0.74939 l -0.045,0 q -0.38968,0.70443 -0.8543,1.27396 -0.46463,0.56954 -1.07913,0.97421 -0.6145,0.38968 -1.40885,0.59951 -0.79435,0.22482 -1.8435,0.22482 -1.3489,0 -2.32311,-0.32973 -0.9742,-0.32973 -1.60369,-1.01917 -0.62949,-0.68944 -0.92924,-1.76856 -0.28477,-1.07912 -0.28477,-2.59289 l 0,-10.8062 2.71279,0 z"
       style="font-style:normal;font-variant:normal;font-weight:normal;font-stretch:normal;font-family:'Liberation Sans';-inkscape-font-specification:'Liberation Sans';fill:#1a1a1a"
       id="path11010" />
    <path
       d="m 239.19276,627.20074 0,-12.43987 q 0,-0.50958 -0.015,-1.03415 0,-0.53957 -0.015,-1.03416 -0.015,-0.4946 -0.03,-0.92925 -0.015,-0.43464 -0.03,-0.77936 l 2.54793,0 q 0.015,0.34472 0.03,0.79435 0.03,0.43465 0.045,0.89927 0.03,0.46462 0.03,0.89927 0.015,0.41966 0.015,0.71941 l 0.06,0 q 0.28477,-0.92924 0.59951,-1.60369 0.32973,-0.68944 0.76438,-1.12409 0.43465,-0.44963 1.03416,-0.65946 0.59951,-0.22482 1.45381,-0.22482 0.32974,0 0.62949,0.06 0.29976,0.045 0.46462,0.0899 l 0,2.47299 q -0.26978,-0.0749 -0.62948,-0.10492 -0.35971,-0.045 -0.80935,-0.045 -0.92924,0 -1.5887,0.41966 -0.64448,0.41966 -1.06414,1.16905 -0.40467,0.7344 -0.59951,1.76856 -0.19484,1.01917 -0.19484,2.23318 l 0,8.45311 -2.6978,0 z"
       style="font-style:normal;font-variant:normal;font-weight:normal;font-stretch:normal;font-family:'Liberation Sans';-inkscape-font-specification:'Liberation Sans';fill:#1a1a1a"
       id="path11012" />
    <path
       d="m 249.36948,607.53676 0,-2.57791 2.69781,0 0,2.57791 -2.69781,0 z m 0,19.66398 0,-16.21679 2.69781,0 0,16.21679 -2.69781,0 z"
       style="font-style:normal;font-variant:normal;font-weight:normal;font-stretch:normal;font-family:'Liberation Sans';-inkscape-font-specification:'Liberation Sans';fill:#1a1a1a"
       id="path11014" />
    <path
       d="m 258.27223,619.01741 q 0,1.39386 0.19484,2.56291 0.20983,1.16905 0.68944,2.02335 0.4796,0.83932 1.25897,1.30394 0.79435,0.46462 1.94841,0.46462 1.43883,0 2.39805,-0.77936 0.97421,-0.77937 1.19903,-2.39805 l 2.72777,0.17985 q -0.13489,1.00419 -0.58452,1.93343 -0.44963,0.92924 -1.229,1.63367 -0.76438,0.70443 -1.87347,1.13907 -1.1091,0.41966 -2.56292,0.41966 -1.90345,0 -3.23736,-0.64447 -1.33392,-0.64448 -2.17323,-1.76856 -0.82433,-1.13908 -1.19903,-2.66783 -0.37469,-1.54375 -0.37469,-3.34228 0,-1.63367 0.26978,-2.87766 0.26978,-1.25897 0.74939,-2.18822 0.4946,-0.94423 1.15406,-1.57371 0.65946,-0.64448 1.42384,-1.01918 0.77937,-0.38968 1.63367,-0.55454 0.85431,-0.17986 1.7236,-0.17986 1.36389,0 2.42802,0.3747 1.06413,0.37469 1.82851,1.03416 0.77937,0.64447 1.25898,1.52875 0.47961,0.88428 0.67445,1.90345 l -2.77275,0.20983 q -0.20982,-1.3489 -1.06413,-2.14325 -0.8543,-0.79436 -2.42802,-0.79436 -1.15406,0 -1.93343,0.38968 -0.76438,0.3747 -1.24398,1.15407 -0.47961,0.76437 -0.68944,1.93342 -0.19484,1.16905 -0.19484,2.74277 z"
       style="font-style:normal;font-variant:normal;font-weight:normal;font-stretch:normal;font-family:'Liberation Sans';-inkscape-font-specification:'Liberation Sans';fill:#1a1a1a"
       id="path11016" />
    <path
       d="m 274.24922,613.75669 q 0.44963,-0.82433 0.9742,-1.39386 0.52458,-0.58453 1.15406,-0.95922 0.62949,-0.3747 1.37888,-0.53956 0.74939,-0.17986 1.67863,-0.17986 1.55873,0 2.54793,0.41966 1.00418,0.41966 1.57372,1.18404 0.58452,0.74939 0.79435,1.79853 0.22482,1.04915 0.22482,2.30812 l 0,10.8062 -2.71279,0 0,-10.28162 q 0,-1.03416 -0.13489,-1.81353 -0.11991,-0.77936 -0.47961,-1.28895 -0.35971,-0.52457 -1.01917,-0.77936 -0.65947,-0.26978 -1.70861,-0.26978 -0.95922,0 -1.73859,0.34472 -0.76437,0.34472 -1.31892,0.9742 -0.53956,0.62949 -0.83932,1.52876 -0.29975,0.89927 -0.29975,2.02335 l 0,9.56221 -2.69781,0 0,-22.24189 2.69781,0 0,5.78529 q 0,0.4946 -0.015,0.9892 -0.015,0.4946 -0.045,0.91425 -0.015,0.41966 -0.03,0.71942 -0.015,0.28477 -0.03,0.38968 l 0.045,0 z"
       style="font-style:normal;font-variant:normal;font-weight:normal;font-stretch:normal;font-family:'Liberation Sans';-inkscape-font-specification:'Liberation Sans';fill:#1a1a1a"
       id="path11018" />
  </g>
  <path
     id="path11022"
     d="m 31.804806,15.151457 c 1.086469,-0.420937 2.032352,-1.196219 2.658384,-2.178913 0.903258,-1.417861 1.119179,-3.1769623 1.944469,-4.6415795 0.989933,-1.7568057 2.876057,-2.9763111 4.884364,-3.1580693 l 0.02966,-3.3819578 c 0.473745,-0.3824927 1.070803,-0.6097378 1.678978,-0.6390318 0.700938,-0.033762 1.41148,0.1981982 1.957484,0.6390318 l -0.02916,3.4043775 c 1.155155,0.1378889 2.27232,0.5822766 3.206567,1.2755145 0.934248,0.6932378 1.683338,1.6336633 2.150095,2.6992785 0.31616,0.721801 0.502546,1.4921891 0.73485,2.2451761 0.232304,0.752986 0.518735,1.504416 1.003321,2.12581 0.630793,0.808878 1.589573,1.35407 2.607253,1.482564 l 0,4.955125 2.8612,2.086393 0.06637,6.065974"
     style="fill:none;fill-rule:evenodd;stroke:#1a1a1a;stroke-width:1.58850539;stroke-linecap:round;stroke-linejoin:round;stroke-opacity:1" />
  <path
     id="path11050"
     d="m 55.831299,31.412689 c 1.447139,-2.680988 3.519351,-5.022035 6.004861,-6.783894 2.054144,-1.456085 4.387143,-2.517286 6.834549,-3.108804 l 0.05088,-4.084453 1.962189,-2.287549 c -0.354227,-0.422072 -0.528997,-0.990007 -0.47335,-1.538209 0.04116,-0.405488 0.205489,-0.797653 0.46569,-1.111357 0.260202,-0.313703 0.615234,-0.547689 1.006127,-0.663091 l 0.340969,-1.741834 0.388203,1.742597 c 0.385927,0.10773 0.738926,0.330621 1.002106,0.63275 0.26318,0.302129 0.435552,0.68236 0.489336,1.079416 0.08016,0.591775 -0.111961,1.214948 -0.511418,1.65886 l 1.928668,2.22425 0.123835,4.207592 c 3.411822,0.567697 6.629212,2.248561 9.043937,4.724831 2.840608,2.913008 4.534881,6.91548 4.649017,10.982622 l 1.900993,1.294694"
     style="fill:none;fill-rule:evenodd;stroke:#1a1a1a;stroke-width:1.58850539;stroke-linecap:round;stroke-linejoin:round;stroke-opacity:1" />
</svg>
